<svg clip-rule="evenodd" fill-rule="evenodd" viewBox="0 0 846.66 846.66" xmlns="http://www.w3.org/2000/svg" ><g stroke-width="var(--icon-stroke-width)" stroke="currentColor"><path d="m516.38 64.64-72.35 299.92 20.88 86.53c.38 1.58.56 3.17.56 4.73l.07 254.64c0 10.25-9.96 19.48-16.22 27.24l46.22 57.14h123.89l-10.52-447.81c-.06-2.59.37-5.07 1.21-7.36l63.97-200.89-136.36-59.99c-5.99-2.64-15.58-10.22-21.35-14.15zm-13.43 269.45c-26.56 0-26.56-40.38 0-40.38h74.71c26.55 0 26.55 40.38 0 40.38zm-128.72 305.91c-26.56 0-26.56-40.38 0-40.38h50.93v-77.74h-50.93c-26.56 0-26.56-40.38 0-40.38h50.93v-23.56c-31.63-131.1-63.26-262.2-94.88-393.3-5.77 3.93-15.36 11.51-21.35 14.15l-136.36 59.99 63.97 200.89c.83 2.29 1.27 4.77 1.2 7.36l-10.51 447.81h123.88l74.05-91.53v-63.31zm-246.35-514.61c.81-7.4 5.55-13.43 11.91-16.23l151.28-66.58 40.58-27.62c12.11-8.26 28.55-1.17 31.17 12.95l60.51 250.83 60.51-250.83c2.62-14.12 19.06-21.21 31.17-12.95l40.58 27.62 151.28 66.58c6.36 2.8 11.1 8.83 11.91 16.23l75.23 669.68c1.32 11.96-8.07 22.34-20.03 22.37l-113.91.03c-1.2 10-9.72 17.75-20.04 17.75h-154.12c-5.88 0-11.71-2.56-15.7-7.49l-46.85-57.92c-15.64 19.31-31.29 38.6-46.92 57.92-3.98 4.93-9.81 7.49-15.69 7.49h-154.12c-10.32 0-18.84-7.75-20.04-17.75l-113.91-.03c-11.96-.03-21.35-10.41-20.03-22.37zm29.52 98.27-62.17 553.43h92.17l10.04-427.68zm501.86 553.43h92.17l-62.17-553.43-40.04 125.75z" fill-rule="nonzero"></path></g></svg>